# xmcd
#
# Track frame offsets: 
#        150
#        13465
#        31642
#        50735
#        67787
#        91472
#        111310
#        128872
#        147090
#        171172
#        180325
#        198045
#        237990
#
# Disc length: 4434 seconds
#
# Revision: 3
# Processed by: cddbd v1.5.2PL0 Copyright (c) Steve Scherf et al.
# Submitted via: ExactAudioCopyFreeDBPlugin 1.0
#
DISCID=ab11500d
DTITLE=La Ley - Vertigo
DYEAR=1998
DGENRE=Pop
TTITLE0=Fotofobia
TTITLE1=Guerrillero
TTITLE2=Vi
TTITLE3=Por Ti
TTITLE4=Tanta Ciudad
TTITLE5=Sed
TTITLE6=Ciertos Civiles
TTITLE7=Krazyworld
TTITLE8=Opacidad
TTITLE9=Shygun
TTITLE10=Ciclos
TTITLE11=Solitaryman
TTITLE12=Quick Time Movie
EXTD=YEAR: 1998
EXTT0=
EXTT1=
EXTT2=
EXTT3=
EXTT4=
EXTT5=
EXTT6=
EXTT7=
EXTT8=
EXTT9=
EXTT10=
EXTT11=
EXTT12=
PLAYORDER=
